<svg xmlns="http://www.w3.org/2000/svg" fill-rule="evenodd" viewBox="0 0 100 100">
    <path d="M79.78 18H21.23A11.25 11.25 0 0 0 10 29.23v33.55A11.23 11.23 0 0 0 21.22 74H27v17.08a1.5 1.5 0 0 0 2.52 1.1L49.06 74h30.71A11.25 11.25 0 0 0 91 62.77V29.22A11.23 11.23 0 0 0 79.78 18ZM88 62.77A8.24 8.24 0 0 1 79.77 71h-31.3a1.5 1.5 0 0 0-1 .4L30 87.64V72.5a1.5 1.5 0 0 0-1.5-1.5h-7.28A8.23 8.23 0 0 1 13 62.78V29.23A8.24 8.24 0 0 1 21.23 21h58.55A8.23 8.23 0 0 1 88 29.22Z"/>
    <path d="M30.16 48.84a4.61 4.61 0 1 0 4.61 4.61 4.62 4.62 0 0 0-4.61-4.61Zm0 6.23a1.61 1.61 0 1 1 1.61-1.62 1.61 1.61 0 0 1-1.61 1.61Zm13.15-6.23a4.61 4.61 0 1 0 4.61 4.61 4.62 4.62 0 0 0-4.61-4.61Zm0 6.23a1.61 1.61 0 1 1 1.61-1.62 1.61 1.61 0 0 1-1.61 1.61Zm14.11-6.13a4.61 4.61 0 1 0 2.9 2 4.62 4.62 0 0 0-2.9-2Zm.6 4.85a1.61 1.61 0 1 1-1.23-1.92A1.61 1.61 0 0 1 58 53.79ZM73.09 29.8A7.49 7.49 0 0 0 64 37.12a1.5 1.5 0 0 0 3 0 4.48 4.48 0 1 1 4.5 4.48 1.5 1.5 0 0 0-1.5 1.5v6.4a1.5 1.5 0 0 0 3 0v-5a7.49 7.49 0 0 0 .09-14.65ZM71.5 54a1.5 1.5 0 0 0-1.5 1.5v2a1.5 1.5 0 0 0 3 0v-2a1.5 1.5 0 0 0-1.5-1.5Z"/>
</svg>
