<svg xmlns="http://www.w3.org/2000/svg" fill-rule="evenodd" viewBox="0 0 100 100">
    <path d="M50 68.5A20.52 20.52 0 0 0 29.5 89a1.5 1.5 0 0 0 1.5 1.5h38a1.5 1.5 0 0 0 1.5-1.5A20.52 20.52 0 0 0 50 68.5Zm-17.44 19a17.5 17.5 0 0 1 34.87 0ZM50 65.5A10.5 10.5 0 1 0 39.5 55 10.51 10.51 0 0 0 50 65.5Zm0-18a7.5 7.5 0 1 1-7.5 7.5 7.51 7.51 0 0 1 7.5-7.5Zm23.3 4a20.7 20.7 0 0 0-7.87 1.5 1.5 1.5 0 1 0 1.13 2.78 17.72 17.72 0 0 1 6.74-1.28c9 0 16.34 6.6 17.13 15H66.65a1.5 1.5 0 0 0 0 3H92a1.5 1.5 0 0 0 1.5-1.5c0-10.75-9.06-19.5-20.2-19.5Zm-.3-4A10.5 10.5 0 1 0 62.5 37 10.51 10.51 0 0 0 73 47.5Zm0-18a7.5 7.5 0 1 1-7.5 7.5 7.51 7.51 0 0 1 7.5-7.5ZM34.49 71A1.5 1.5 0 0 0 33 69.5H9.57c.79-8.4 8.18-15 17.14-15a17.76 17.76 0 0 1 6.72 1.3 1.5 1.5 0 0 0 1.13-2.8 20.74 20.74 0 0 0-7.85-1.52C15.57 51.5 6.5 60.25 6.5 71A1.5 1.5 0 0 0 8 72.5h25a1.5 1.5 0 0 0 1.49-1.5ZM27 47.5A10.5 10.5 0 1 0 16.5 37 10.51 10.51 0 0 0 27 47.5Zm0-18a7.5 7.5 0 1 1-7.5 7.5 7.51 7.51 0 0 1 7.5-7.5Zm17.5-5.74a1.5 1.5 0 0 0-3 0c0 3.57 3 6.54 7 7.15V33a1.5 1.5 0 0 0 3 0v-2.08c4-.61 7-3.58 7-7.15s-3-6.54-7-7.15V8.13c2.31.51 4 2.15 4 4.11a1.5 1.5 0 1 0 3 0c0-3.57-3-6.54-7-7.15V3a1.5 1.5 0 0 0-3 0v2.08c-4 .61-7 3.58-7 7.15s3 6.54 7 7.14v8.5c-2.3-.51-4-2.15-4-4.11Zm11 0c0 2-1.69 3.6-4 4.11v-8.21c2.31.51 4 2.16 4 4.1Zm-11-11.53c0-2 1.69-3.6 4-4.11v8.2c-2.31-.5-4-2.14-4-4.09Z"/>
</svg>
