<?xml version="1.0" encoding="iso-8859-1"?>
<!-- Generator: Adobe Illustrator 22.0.0, SVG Export Plug-In . SVG Version: 6.00 Build 0)  -->
<svg version="1.1" id="Layer_1" xmlns="http://www.w3.org/2000/svg" xmlns:xlink="http://www.w3.org/1999/xlink" x="0px" y="0px"
	 viewBox="0 0 100 100" style="enable-background:new 0 0 100 100;" xml:space="preserve">
<title>motArtboard 1 copy 2</title>
<circle style="fill:none;stroke:#FF5500;stroke-width:2;stroke-miterlimit:10;" cx="50" cy="50" r="47"/>
<g>
	<g>
		<path style="fill:none;stroke:#FF5500;stroke-width:2;stroke-linecap:round;stroke-linejoin:round;stroke-miterlimit:10;" d="
			M64.311,46.015c0,8.905-6.1,16.125-13.626,16.125c-7.524,0-13.625-7.22-13.625-16.125V24.316h27.251V46.015z"/>
		<path style="fill:none;stroke:#FF5500;stroke-width:2;stroke-linecap:round;stroke-linejoin:round;stroke-miterlimit:10;" d="
			M53.873,62.505c0,5.766,4.673,10.44,10.438,10.44l0,0v5.403H53.873H47.3H37.178v-5.403l0,0c5.764,0,10.122-4.675,10.122-10.44"/>
		<path style="fill:none;stroke:#FF5500;stroke-width:2;stroke-linecap:round;stroke-linejoin:round;stroke-miterlimit:10;" d="
			M65.095,29.72H75c0,0-0.591,16.338-11.297,21.076"/>
		<path style="fill:none;stroke:#FF5500;stroke-width:2;stroke-linecap:round;stroke-linejoin:round;stroke-miterlimit:10;" d="
			M37.032,29.72H26.126c0,0,0.591,16.338,11.298,21.076"/>
	</g>
	<path style="fill:none;stroke:#FF5500;stroke-width:2;stroke-linecap:round;stroke-linejoin:round;stroke-miterlimit:10;" d="
		M50.37,31.626l-2.57,5.207l-5.748,0.835c-0.501,0.072-0.703,0.69-0.339,1.044l4.159,4.054l-0.986,5.747
		c-0.085,0.496,0.431,0.878,0.881,0.651l5.271-2.668l5.021,2.64c0.451,0.236,0.975-0.146,0.891-0.646l-0.982-5.724l4.158-4.054
		c0.363-0.354,0.164-0.972-0.339-1.044l-5.747-0.835l-2.57-5.207C51.245,31.17,50.595,31.17,50.37,31.626z"/>
</g>
</svg>
