<?xml version="1.0" encoding="iso-8859-1"?>
<!-- Generator: Adobe Illustrator 22.0.0, SVG Export Plug-In . SVG Version: 6.00 Build 0)  -->
<svg version="1.1" id="Layer_1" xmlns="http://www.w3.org/2000/svg" xmlns:xlink="http://www.w3.org/1999/xlink" x="0px" y="0px"
	 viewBox="0 0 100 100" style="enable-background:new 0 0 100 100;" xml:space="preserve">
<title>motArtboard 1 copy 2</title>
<circle style="fill:none;stroke:#FF5500;stroke-width:2;stroke-miterlimit:10;" cx="50" cy="50" r="47"/>
<g>
	
		<rect x="24.565" y="36.706" style="fill:none;stroke:#FF5500;stroke-width:2;stroke-linecap:round;stroke-linejoin:round;stroke-miterlimit:10;" width="12.522" height="34.156"/>
	<path style="fill:none;stroke:#FF5500;stroke-width:2;stroke-linecap:round;stroke-linejoin:round;stroke-miterlimit:10;" d="
		M37.083,40.233c0,0,10.461-6.775,9.949-13.241c-0.514-6.475,2.773-7.196,4.716-6.373c1.959,0.831,5.752,3.902,6.057,10.167
		c0.279,5.526-2.15,7.591-2.15,7.591h12.31h4.401c2.566,0,4.634,1.872,4.634,4.173l0,0c0,2.309-2.069,4.19-4.634,4.19"/>
	<path style="fill:none;stroke:#FF5500;stroke-width:2;stroke-linecap:round;stroke-linejoin:round;stroke-miterlimit:10;" d="
		M68.323,46.74h4.043c2.566,0,4.634,1.964,4.634,4.401l0,0c0,2.433-2.069,4.406-4.634,4.406h-4.847"/>
	<path style="fill:none;stroke:#FF5500;stroke-width:2;stroke-linecap:round;stroke-linejoin:round;stroke-miterlimit:10;" d="
		M66.519,55.548h3.275c2.563,0,4.638,1.966,4.638,4.401l0,0c0,2.427-2.075,4.399-4.638,4.399h-3.275"/>
	<path style="fill:none;stroke:#FF5500;stroke-width:2;stroke-linecap:round;stroke-linejoin:round;stroke-miterlimit:10;" d="
		M63.043,64.347h3.476c2.555,0,4.628,1.966,4.628,4.409l0,0c0,2.435-2.073,4.401-4.628,4.401l-9.939-0.07
		c-5.846-0.191-19.496-5.305-19.496-5.305"/>
</g>
</svg>
