<?xml version="1.0" encoding="iso-8859-1"?>
<!-- Generator: Adobe Illustrator 22.0.0, SVG Export Plug-In . SVG Version: 6.00 Build 0)  -->
<svg version="1.1" id="Layer_1" xmlns="http://www.w3.org/2000/svg" xmlns:xlink="http://www.w3.org/1999/xlink" x="0px" y="0px"
	 viewBox="0 0 100 100" style="enable-background:new 0 0 100 100;" xml:space="preserve">
<title>motArtboard 1 copy</title>
<g>
	
		<circle style="fill:none;stroke:#FF5500;stroke-width:2;stroke-linecap:round;stroke-linejoin:round;stroke-miterlimit:10;" cx="49" cy="50" r="47"/>
</g>
<g>
	<g>
		<path style="fill:none;stroke:#FF5500;stroke-width:2;stroke-linecap:round;stroke-linejoin:round;stroke-miterlimit:10;" d="
			M52.632,64.205c7.487,0.657,13.118,3.499,13.118,6.905c0,3.892-7.357,7.048-16.43,7.048c-9.074,0-16.43-3.156-16.43-7.048
			c0-3.34,5.417-6.138,12.689-6.865"/>
		<path style="fill:none;stroke:#FF5500;stroke-width:2;stroke-linecap:round;stroke-linejoin:round;stroke-miterlimit:10;" d="
			M65.75,38.561c0-9.06-7.345-16.404-16.407-16.404c-9.058,0-16.403,7.345-16.403,16.404c0,3.203,0.932,6.181,2.519,8.706H35.44
			l13.627,22.806l14.184-22.806h-0.019C64.817,44.742,65.75,41.764,65.75,38.561z"/>
	</g>
	
		<circle style="fill:none;stroke:#FF5500;stroke-width:2;stroke-linecap:round;stroke-linejoin:round;stroke-miterlimit:10;" cx="49.635" cy="38.561" r="5.346"/>
</g>
</svg>
